<svg width="512" height="126" viewBox="0 0 512 126" xmlns="http://www.w3.org/2000/svg">
	<g id="logo_git">
		<g id="dark">
			<g id="bars">
				<path id="bar 1" d="M123.207 0H0V10.57H123.207V0Z"/>
				<path id="bar 2" d="M123.207 12.8059H0V17.278H123.207V12.8059Z"/>
				<path id="bar 3" d="M123.207 19.5139H0V23.9859H123.207V19.5139Z"/>
				<path id="bar 4" d="M123.207 26.5984H0V43.0633H123.207V26.5984Z"/>
				<path id="bar 5" d="M123.207 44.6693H0V60.9311H123.207V44.6693Z"/>
				<path id="bar 6" d="M123.207 62.74H0V79.0018H123.207V62.74Z"/>
				<path id="bar 7" d="M123.207 81.0226H0V85.6978H123.207V81.0226Z"/>
				<path id="bar 8" d="M123.207 88.5359H0V93.2111H123.207V88.5359Z"/>
				<path id="bar 9" d="M123.207 95.6398H0V104.584H123.207V95.6398Z"/>
				<path id="bar 10" d="M123.207 107.814H0V113.912H123.207V107.814Z"/>
				<path id="bar 11" d="M123.207 115.945H0V119.604H123.207V115.945Z"/>
				<path id="bar 12" d="M123.207 121.433H0V125.092H123.207V121.433Z"/>
			</g>
			<g id="text">
				<g id="INTECSA">
					<path d="M149.111 124.015V58.7365H157.971V124.015H149.111Z"/>
					<path d="M183.186 70.1137V124.015H174.793V58.7365H186.543L215.359 113.011V58.7365H223.752V124.015H212.188L183.186 70.1137Z"/>
					<path d="M233.085 58.7365H282.044V66.57H261.994V124.015H253.135V66.57H233.085V58.7365Z"/>
					<path d="M291.362 58.7365H330.529V66.3835H300.221V86.2469H326.333V93.7073H300.221V116.368H330.529V124.015H291.362V58.7365Z"/>
					<path d="M348.405 91.2826C348.405 95.1994 348.902 98.7742 349.897 102.007C350.954 105.178 352.384 107.913 354.187 110.213C356.052 112.514 358.259 114.286 360.808 115.529C363.357 116.772 366.155 117.394 369.201 117.394C372.247 117.394 374.89 117.052 377.128 116.368C379.366 115.622 381.542 114.628 383.656 113.384L386.36 120.751C384.06 121.995 381.418 123.052 378.433 123.922C375.511 124.73 372.092 125.134 368.175 125.134C363.885 125.134 359.969 124.357 356.425 122.803C352.944 121.249 349.928 119.042 347.379 116.182C344.83 113.26 342.841 109.747 341.411 105.644C340.043 101.479 339.359 96.8158 339.359 91.6557C339.359 86.6821 340.043 82.1125 341.411 77.9471C342.841 73.7817 344.861 70.2069 347.473 67.2228C350.084 64.1764 353.223 61.814 356.891 60.1354C360.622 58.4568 364.756 57.6175 369.294 57.6175C372.465 57.6175 375.294 57.9283 377.781 58.55C380.33 59.1096 382.723 59.9178 384.961 60.9747L382.257 68.4351C380.33 67.5025 378.34 66.7565 376.288 66.197C374.299 65.6374 371.937 65.3577 369.201 65.3577C366.217 65.3577 363.45 65.9483 360.901 67.1295C358.352 68.2486 356.145 69.9272 354.28 72.1653C352.415 74.4034 350.954 77.1389 349.897 80.3718C348.902 83.5425 348.405 87.1794 348.405 91.2826Z"/>
					<path d="M397.341 111.053C399.579 112.918 402.097 114.441 404.895 115.622C407.692 116.804 410.956 117.394 414.686 117.394C419.163 117.394 422.706 116.462 425.317 114.596C427.929 112.731 429.234 110.213 429.234 107.043C429.234 105.737 429.048 104.525 428.675 103.406C428.302 102.287 427.556 101.23 426.436 100.235C425.38 99.1783 423.856 98.1525 421.867 97.1577C419.94 96.1008 417.422 94.9818 414.313 93.8005C410.956 92.495 408.096 91.2205 405.734 89.9771C403.434 88.6715 401.568 87.2727 400.138 85.7806C398.709 84.2263 397.683 82.5477 397.061 80.7448C396.439 78.8797 396.129 76.7659 396.129 74.4034C396.129 72.1031 396.595 69.9272 397.527 67.8756C398.522 65.8239 399.952 64.0521 401.817 62.56C403.744 61.0058 406.076 59.7934 408.811 58.9231C411.609 58.0527 414.78 57.6175 418.323 57.6175C422.178 57.6175 425.628 58.0216 428.675 58.8298C431.721 59.5758 434.736 60.6638 437.72 62.0937L434.456 69.6474C432.343 68.404 429.856 67.3782 426.996 66.57C424.198 65.6996 421.245 65.2644 418.137 65.2644C414.034 65.2644 410.801 66.0726 408.438 67.6891C406.076 69.2433 404.895 71.326 404.895 73.9372C404.895 75.1806 405.05 76.2996 405.361 77.2943C405.734 78.2269 406.418 79.1595 407.412 80.092C408.469 80.9624 409.899 81.8639 411.702 82.7964C413.567 83.729 416.023 84.7548 419.069 85.8738C422.675 87.2416 425.722 88.6404 428.208 90.0703C430.695 91.5002 432.685 93.0234 434.177 94.6398C435.669 96.2563 436.726 97.997 437.347 99.8621C438.031 101.727 438.373 103.779 438.373 106.017C438.373 109.063 437.783 111.768 436.601 114.13C435.42 116.493 433.773 118.513 431.659 120.192C429.607 121.808 427.12 123.052 424.198 123.922C421.276 124.73 418.106 125.134 414.686 125.134C410.148 125.134 406.014 124.544 402.283 123.362C398.553 122.119 395.414 120.503 392.865 118.513L397.341 111.053Z"/>
					<path d="M444.002 121.684L469.554 58.7365H479.253L504.431 121.684L496.318 124.948L489.044 106.297H458.83L451.556 124.761L444.002 121.684ZM461.627 98.8363H486.153L473.937 67.5025L461.627 98.8363Z"/>
				</g>
				<path id="Line" fill-rule="evenodd" clip-rule="evenodd" d="M512 43.2902H142.667V38.8986H512V43.2902Z"/>
				<g id="GRUPO">
					<path d="M167.402 27.6588C166.314 29.0407 164.715 30.1086 162.607 30.8624C160.514 31.6022 158.148 31.9512 155.509 31.9093C153.429 31.8953 151.601 31.4417 150.023 30.5483C148.446 29.641 147.204 28.3428 146.296 26.6537C145.389 24.9647 144.873 23.0384 144.747 20.8747C144.607 18.8646 144.817 16.5056 145.375 13.7975C145.947 11.0755 146.918 8.69553 148.286 6.65753C149.667 4.60556 151.322 3.07705 153.248 2.07201C155.174 1.053 157.31 0.564438 159.655 0.606315C162.838 0.66215 165.329 1.5625 167.13 3.30737C168.931 5.03829 169.957 7.52298 170.208 10.7615L164.303 10.7405C164.15 9.03753 163.696 7.78122 162.942 6.9716C162.189 6.16198 161.065 5.72925 159.571 5.67342C156.989 5.58966 154.951 6.72732 153.457 9.08639C151.978 11.4315 151.133 14.8375 150.924 19.3043C150.784 21.6913 151.147 23.5409 152.013 24.853C152.892 26.1652 154.225 26.8352 156.012 26.8631C158.092 26.919 159.865 26.4234 161.33 25.3765L162.356 20.1209H156.787L157.603 15.4936H169.245L167.402 27.6588Z"/>
					<path d="M238.838 20.3513H233.855L231.908 31.5115H225.773L231.07 1.02508L241.163 1.04602C244.541 1.04602 247.137 1.84168 248.952 3.433C250.78 5.02433 251.59 7.23682 251.381 10.0705C251.087 14.2582 248.854 17.1686 244.68 18.8018L248.973 31.1764V31.5115H242.44L238.838 20.3513ZM234.735 15.2632L239.299 15.3051C240.918 15.2772 242.251 14.8445 243.298 14.0069C244.359 13.1554 244.994 12.0038 245.204 10.5521C245.399 9.19806 245.183 8.13718 244.555 7.36943C243.927 6.60169 242.928 6.1899 241.56 6.13406L236.326 6.11313L234.735 15.2632Z"/>
					<path d="M334.584 1.02508L331.15 21.126C330.676 24.4901 329.28 27.1493 326.963 29.1035C324.645 31.0578 321.77 32.007 318.336 31.9512C316.186 31.9093 314.316 31.4417 312.724 30.5483C311.147 29.641 309.981 28.3707 309.228 26.7375C308.474 25.0903 308.216 23.2268 308.453 21.1469L311.866 1.02508H318.001L314.588 21.1679C314.49 21.9496 314.483 22.6824 314.567 23.3664C314.846 25.6278 316.193 26.8003 318.608 26.8841C320.339 26.9399 321.756 26.4653 322.859 25.4603C323.961 24.4552 324.673 23.0174 324.994 21.1469L328.428 1.02508H334.584Z"/>
					<path d="M396.64 20.77L394.755 31.5115H388.62L393.918 1.02508L404.596 1.04602C407.891 1.04602 410.48 1.96033 412.365 3.78896C414.249 5.61758 415.073 8.00457 414.835 10.9499C414.612 13.9371 413.363 16.3241 411.087 18.1109C408.826 19.8976 405.936 20.791 402.419 20.791L396.64 20.77ZM397.498 15.682L402.607 15.7239C404.254 15.7239 405.622 15.2981 406.711 14.4466C407.8 13.5951 408.449 12.4435 408.658 10.9918C408.868 9.54005 408.631 8.38146 407.947 7.516C407.277 6.65055 406.278 6.1899 404.952 6.13406L399.173 6.11313L397.498 15.682Z"/>
					<path d="M482.167 31.9302C480.143 31.8884 478.357 31.4137 476.807 30.5064C475.272 29.5851 474.05 28.266 473.143 26.549C472.25 24.8181 471.733 22.836 471.594 20.6025C471.44 18.3133 471.684 15.8704 472.326 13.2741C472.969 10.6777 474.001 8.39542 475.425 6.4272C476.849 4.45899 478.517 2.98632 480.43 2.00919C482.356 1.03206 484.436 0.564438 486.669 0.606315C488.721 0.648191 490.515 1.13676 492.05 2.07201C493.586 2.9933 494.793 4.32638 495.673 6.07125C496.552 7.80216 497.055 9.77037 497.18 11.9759C497.32 14.4327 497.055 16.9592 496.385 19.5556C495.715 22.152 494.675 24.3994 493.265 26.2978C491.855 28.1962 490.201 29.62 488.302 30.5692C486.418 31.5184 484.373 31.9721 482.167 31.9302ZM490.857 15.4307L491.024 13.4416C491.164 10.9569 490.829 9.07243 490.019 7.7882C489.224 6.50398 488.009 5.83395 486.376 5.77811C483.822 5.69436 481.791 6.82503 480.283 9.17014C478.789 11.5152 477.945 14.7956 477.749 19.0112C477.61 21.4819 477.938 23.3873 478.734 24.7274C479.529 26.0535 480.765 26.7445 482.44 26.8003C484.631 26.898 486.446 26.0465 487.884 24.2458C489.321 22.4312 490.264 19.8697 490.71 16.5614L490.857 15.4307Z"/>
				</g>
			</g>
		</g>
		<g id="white">
			<path id="g" d="M62.5467 17.1134L62.5307 54.8091C62.8354 59.9598 62.0913 63.2776 59.8738 66.9898C55.251 73.5675 48.2484 74.6618 38.6928 74.6026C32.3172 74.6618 27.9388 73.3483 24.9412 71.8999C17.5313 67.2183 19.1293 58.9456 19.1293 58.9456L34.3583 60.667C34.7679 63.1468 36.5404 64.5534 40.1699 64.7971C43.2864 64.6288 44.0175 63.8387 44.843 63.2257C46.1521 62.0701 46.7628 59.7215 46.7628 56.2706V50.4461C43.3453 54.7233 39.1291 56.1202 35.7625 56.2709C30.3181 56.5146 26.128 55.1373 22.3243 50.6784C19.2296 47.0732 17.8192 42.7436 17.5509 37.2804C17.2826 31.8171 18.3097 25.1356 22.3189 20.9791C25.6592 17.5054 29.5952 16.1211 34.9892 16.1211C40.4315 16.4747 43.9007 17.6895 47.8507 23.1558V17.1048L62.5467 17.1134ZM40.0443 27.5624C33.0833 27.4818 33.3617 34.8793 33.2061 36.3409C33.0993 39.5183 33.6054 45.4096 39.9109 45.721C44.7024 45.5065 46.6359 41.6392 46.8218 38.1811C47.1503 33.3162 45.8451 28.2244 40.0443 27.5624Z" fill="white"/>
			<path id="i" d="M64.7231 56.4702V45.7319H80.3529V56.4702H64.7231ZM64.7231 102.108V60.8629H80.3529V102.107L64.7231 102.108Z" fill="white"/>
			<path id="t" d="M99.1525 77.8268C96.8458 77.8268 94.032 77.3875 92.2176 76.488C90.1996 75.4379 88.7814 74.0601 87.9102 72.1036C87.2855 70.6426 86.6016 69.1448 86.4129 63.0951L86.4254 47.4844L80.6988 47.5015L80.7246 36.1054H86.4204V28.5784L102.204 20.4666L102.207 36.0581H110.805V47.4819L102.207 47.485L102.204 52.2015C102.204 54.4759 102.211 59.2747 102.211 60.2529C102.314 62.8289 101.47 66.8474 105.482 66.8148C107.234 66.6486 107.513 66.5649 110.195 65.7764L111.337 76.5573C109.326 77.0032 107.293 77.3387 105.245 77.5622C103.222 77.782 101.187 77.8704 99.1525 77.8268Z" fill="white"/>
			<g id="registred trand">
				<g id="Ellipse 1">
					<path id="Vector (Stroke)" fill-rule="evenodd" clip-rule="evenodd" d="M116.235 68.6192C114.489 68.6192 113.074 70.0345 113.074 71.7803C113.074 73.5262 114.489 74.9414 116.235 74.9414C117.981 74.9414 119.396 73.5262 119.396 71.7803C119.396 70.0345 117.981 68.6192 116.235 68.6192ZM112.17 71.7803C112.17 69.5351 113.99 67.715 116.235 67.715C118.48 67.715 120.3 69.5351 120.3 71.7803C120.3 74.0255 118.48 75.8456 116.235 75.8456C113.99 75.8456 112.17 74.0255 112.17 71.7803Z" fill="white"/>
				</g>
				<g id="MR">
					<path d="M114.816 70.6042L115.476 72.2525L116.137 70.6042H116.482V72.6244H116.216V71.8377L116.241 70.9885L115.578 72.6244H115.374L114.712 70.9927L114.738 71.8377V72.6244H114.472V70.6042H114.816Z" fill="white"/>
					<path d="M117.693 71.8072H117.219V72.6244H116.951V70.6042H117.62C117.847 70.6042 118.022 70.656 118.144 70.7596C118.267 70.8632 118.329 71.014 118.329 71.2119C118.329 71.3377 118.295 71.4473 118.226 71.5408C118.159 71.6342 118.064 71.704 117.943 71.7503L118.418 72.6077V72.6244H118.132L117.693 71.8072ZM117.219 71.5893H117.628C117.761 71.5893 117.866 71.5551 117.943 71.4866C118.022 71.4182 118.061 71.3266 118.061 71.2119C118.061 71.087 118.024 70.9913 117.949 70.9247C117.875 70.8581 117.767 70.8244 117.627 70.8234H117.219V71.5893Z" fill="white"/>
				</g>
			</g>
		</g>
	</g>
</svg>
