<svg xmlns="http://www.w3.org/2000/svg" width="253.007" height="160.406" viewBox="0 0 253.007 160.406">
  <g id="logo_eguel" transform="translate(-456.994 -514.475)">
    <path id="letter_E" data-name="letter E" d="M257,132.755,355.869,1V50.409S326.12,50.3,322.1,77.525h9.91v11H321.88c2.993,28.96,33.989,28.849,33.989,28.849v15.381Z" transform="translate(199.993 513.475)" fill="#4a07a5"/>
    <g id="letter_g" data-name="letter g">
      <g id="Subtraction_1" data-name="Subtraction 1" transform="translate(267 560)" fill="#4a07a5">
        <path d="M288,68A31.008,31.008,0,0,1,275.934,8.436,30.806,30.806,0,0,1,288,6c.332,0,.669.005,1,.016V9.07c-.653-.046-1.325-.07-2-.07a28,28,0,1,0,0,56c.669,0,1.342-.024,2-.07v3.055C288.656,68,288.32,68,288,68Z" stroke="none"/>
        <path d="M 288 68.00040435791016 C 283.8150634765625 68.00040435791016 279.7553100585938 67.18072509765625 275.9335021972656 65.56417083740234 C 272.2420959472656 64.00276184082031 268.9268798828125 61.76748275756836 266.0799255371094 58.92041778564453 C 263.2330017089844 56.07337188720703 260.9978332519531 52.75804138183594 259.4364929199219 49.0665168762207 C 257.8200073242188 45.24467468261719 257.0003967285156 41.18488311767578 257.0003967285156 36.99989700317383 C 257.0003967285156 32.8149299621582 257.8200073242188 28.75518417358398 259.4364929199219 24.93341827392578 C 260.997802734375 21.24200630187988 263.2330017089844 17.92679595947266 266.0799255371094 15.0798282623291 C 268.9268493652344 12.23290634155273 272.2420959472656 9.99771785736084 275.9335021972656 8.436395645141602 C 279.7553100585938 6.819917678833008 283.8150634765625 6.000306606292725 288 6.000306606292725 C 288.3321533203125 6.000306606292725 288.6685485839844 6.005617618560791 288.9999084472656 6.016117572784424 L 288.9999084472656 9.070206642150879 C 288.3470153808594 9.023950576782227 287.674560546875 9.000006675720215 287.0001220703125 9.000006675720215 C 271.5609130859375 9.000006675720215 259.0002136230469 21.56070709228516 259.0002136230469 36.99989700317383 C 259.0002136230469 52.43910598754883 271.5609130859375 64.99980926513672 287.0001220703125 64.99980926513672 C 287.6695556640625 64.99980926513672 288.3423767089844 64.97618103027344 288.9999084472656 64.92960357666016 L 288.9999084472656 67.98457336425781 C 288.6564025878906 67.99541473388672 288.3203125 68.00040435791016 288 68.00040435791016 Z" stroke="none" fill="#4a07a5"/>
      </g>
      <path id="Subtraction_2" data-name="Subtraction 2" d="M271.5,30A14.5,14.5,0,0,1,261.247,5.247a14.5,14.5,0,0,1,20.506,20.506A14.4,14.4,0,0,1,271.5,30Zm5.4-17.07h0a36.941,36.941,0,0,1-.765,4.763c-.639,2.964-3.558,5.153-3.587,5.175a17.054,17.054,0,0,0,6.469-1.882c2.377-1.493,2.7-4.754,2.7-8.056H276.9Z" transform="translate(284 582)" fill="#4a07a5"/>
      <path id="Path_5" data-name="Path 5" d="M329.878,576.581v97.3H278.717a8.764,8.764,0,0,1-3.647-6.773,7.741,7.741,0,0,1,3.647-6.41H315.44V576.581Z" transform="translate(257 1)" fill="#ff0a12"/>
      <path id="Path_6" data-name="Path 6" d="M318.6,576.465v86.305l-42.425,0" transform="translate(257 1)" fill="none" stroke="#fff" stroke-width="1"/>
    </g>
    <g id="letter_u" data-name="letter u">
      <path id="Path_7" data-name="Path 7" d="M365.524,616.273h-17.4a5.51,5.51,0,0,1-3.4-2.938c-1.149-2.409-1.2-6.7-1.2-6.7V577.273" transform="translate(256.476 0.727)" fill="none" stroke="#4a07a5" stroke-width="4"/>
      <path id="Subtraction_3" data-name="Subtraction 3" d="M276,43H261V2h15Zm-17,0h-2V2h2Z" transform="translate(363 576)" fill="#4a07a5"/>
    </g>
    <path id="letter_e-2" data-name="letter e" d="M279,43a22.5,22.5,0,0,1-15-5.639V6.638a22.759,22.759,0,0,1,30.556.512A20.394,20.394,0,0,1,301,22c0,.166,0,.335-.006.5H275.923V39.073c.006,0,1.125.117,2.7.117,2.833,0,6.752-.356,9.333-2.05,4.157-2.73,7.371-8.5,7.4-8.563H299.9a20.989,20.989,0,0,1-7.88,10.353A22.53,22.53,0,0,1,279,43ZM276,4h0V19h8V4h-8ZM262,35.33l0,0a20.7,20.7,0,0,1-3.67-6.125,20.2,20.2,0,0,1,0-14.406A20.7,20.7,0,0,1,262,8.67V35.33Z" transform="translate(386 577)" fill="#4a07a5"/>
    <path id="letter_l" data-name="letter l" d="M276,51H262V1h14Zm-16,0h-3V1h3Z" transform="translate(434 568)" fill="#4a07a5"/>
  </g>
</svg>
