<svg xmlns="http://www.w3.org/2000/svg" width="256.18" height="209.487" viewBox="0 0 256.18 209.487">
  <g id="logo_ite" transform="translate(-366.5 -414)">
    <g id="background" transform="translate(366.5 417.5)">
      <line id="Line_1" data-name="Line 1" x2="249.932" fill="none" stroke="#024187" stroke-width="7"/>
      <line id="Line_2" data-name="Line 2" x2="249.932" transform="translate(0 12.497)" fill="none" stroke="#024187" stroke-width="6"/>
      <line id="Line_3" data-name="Line 3" x2="249.932" transform="translate(0 38.531)" fill="none" stroke="#024187" stroke-width="33"/>
      <line id="Line_4" data-name="Line 4" x2="249.932" transform="translate(0 74.98)" fill="none" stroke="#024187" stroke-width="22"/>
      <line id="Line_5" data-name="Line 5" x2="129.132" transform="translate(0 104.138)" fill="none" stroke="#024187" stroke-width="24"/>
      <line id="Line_6" data-name="Line 6" x2="129.132" transform="translate(0 127.049)" fill="none" stroke="#024187" stroke-width="10"/>
      <line id="Line_7" data-name="Line 7" x2="129.132" transform="translate(0 142.67)" fill="none" stroke="#024187" stroke-width="10"/>
      <line id="Line_7-2" data-name="Line 7" x2="129.132" transform="translate(0 156.208)" fill="none" stroke="#024187" stroke-width="10"/>
      <line id="Line_8" data-name="Line 8" x2="129.132" transform="translate(0 167.663)" fill="none" stroke="#024187" stroke-width="4"/>
      <line id="Line_9" data-name="Line 9" x2="129.132" transform="translate(0 177.035)" fill="none" stroke="#024187" stroke-width="5"/>
      <line id="Line_9-2" data-name="Line 9" x2="129.132" transform="translate(0 187.449)" fill="none" stroke="#024187" stroke-width="8"/>
      <line id="Line_10" data-name="Line 10" x2="10.414" transform="translate(0 200.987)" fill="none" stroke="#024187" stroke-width="10"/>
      <line id="Line_11" data-name="Line 11" x2="240.56" transform="translate(15.621 200.987)" fill="none" stroke="#024187" stroke-width="4" stroke-dasharray="4"/>
    </g>
    <path id="letter_T" data-name="letter T" d="M165.206,417.472H361.164V467.8H309.052V608.076H235.166V467.8h-69.96Z" transform="translate(259.305 1.04)" fill="#fff"/>
    <path id="letter_E" data-name="letter E" d="M356.22,470.255H309.848V605.891H356.22Z" transform="translate(264.25 3.225)" fill="#fff"/>
    <g id="shadow_i" data-name="shadow i" transform="translate(530.518 496.125)">
      <rect id="Rectangle_3" data-name="Rectangle 3" width="31" height="73" transform="translate(1.482 39.863)" fill="#024187"/>
      <ellipse id="Ellipse_4" data-name="Ellipse 4" cx="16.5" cy="17.5" rx="16.5" ry="17.5" transform="translate(0.482 -0.137)" fill="#024187"/>
    </g>
    <g id="letter_i" data-name="letter i" transform="translate(548.222 500.29)">
      <rect id="Rectangle_3-2" data-name="Rectangle 3" width="32" height="69" transform="translate(0.778 39.697)" fill="#fff"/>
      <ellipse id="Ellipse_4-2" data-name="Ellipse 4" cx="17" cy="17.5" rx="17" ry="17.5" transform="translate(-0.222 -0.303)" fill="#fff"/>
    </g>
  </g>
</svg>
