<svg xmlns="http://www.w3.org/2000/svg" width="248.901" height="253" viewBox="0 0 248.901 253">
  <g id="logo_ita" transform="translate(-397.714 -299)">
    <path id="Triangle" d="M0,205.378v0a237.924,237.924,0,0,0,19.934-18.758,332.551,332.551,0,0,0,41.038-52.177C75.508,111.426,89.478,76.1,98.639,50.512,108.568,22.781,115.135.225,115.2,0c.032.147,3.72,17.024,10.91,40.18,6.594,21.238,17.53,52.086,32.179,78.433s33,48.535,45.81,62.509a312.6,312.6,0,0,0,24.53,24.248L115.2,140.89ZM115.2,102.2h0L140.1,121.1l-.026-.025c-1.284-1.417-12.693-14.124-17.73-23.931a72.984,72.984,0,0,1-5.579-16.334c-1.106-4.865-1.558-8.478-1.563-8.514l-.01.052c-.437,1.789-4.379,17.685-8.068,24.8-3.9,7.517-16.781,23.792-16.91,23.956L115.2,102.2Z" transform="translate(408.38 346.622)" fill="#ee2f35"/>
    <circle id="Circle" cx="13.465" cy="13.465" r="13.465" transform="translate(509.115 299)" fill="#27409a"/>
    <path id="Elipse" d="M33.882,97.647c-9.576,0-17.315-.907-23-2.7C4.995,93.1,1.455,90.344.36,86.761c-.817-2.671-.242-5.746,1.709-9.139A44.02,44.02,0,0,1,11.54,66.94c8.648-7.475,21.9-15.657,38.326-23.66-9.327,5.433-16.387,10.657-20.984,15.527a24.95,24.95,0,0,0-4.9,6.968,8.76,8.76,0,0,0-.6,6.086c.927,3.033,3.9,5.368,8.846,6.94C37,80.32,43.488,81.09,51.5,81.09h.009c20.815,0,49.777-5.2,79.458-14.278,26.657-8.15,50.909-18.46,68.288-29.032,8.45-5.14,14.814-10.063,18.913-14.632,4.244-4.73,5.864-8.871,4.813-12.309-.928-3.034-3.905-5.369-8.85-6.941-4.778-1.519-11.263-2.289-19.275-2.289-1.8,0-3.686.04-5.618.118A217.792,217.792,0,0,1,215.018,0c9.576,0,17.314.907,23,2.7,5.884,1.852,9.423,4.607,10.518,8.189,1.268,4.149-.782,9.176-6.094,14.943-5.131,5.57-13.074,11.592-23.607,17.9a306.629,306.629,0,0,1-37.43,18.644,487.44,487.44,0,0,1-47.563,17.182C96.233,91.052,59.8,97.647,33.882,97.647Z" transform="translate(397.714 383.432)" fill="#27409a"/>
  </g>
</svg>
