<?xml version="1.0" standalone="no"?>
<!DOCTYPE svg PUBLIC "-//W3C//DTD SVG 20010904//EN"
 "http://www.w3.org/TR/2001/REC-SVG-20010904/DTD/svg10.dtd">
<svg version="1.0" xmlns="http://www.w3.org/2000/svg"
 width="2362.000000pt" height="2362.000000pt" viewBox="0 0 2362.000000 2362.000000"
 preserveAspectRatio="xMidYMid meet">

<g transform="translate(0.000000,2362.000000) scale(0.100000,-0.100000)"
fill="#ed2122" stroke="none">
<path d="M11670 22909 c-292 -44 -569 -247 -703 -514 -73 -146 -99 -260 -98
-434 1 -422 287 -790 702 -903 113 -31 365 -33 474 -4 426 115 714 479 716
906 1 172 -25 289 -98 435 -127 252 -371 442 -644 501 -93 19 -264 26 -349 13z"/>
<path d="M11716 18909 c-648 -2417 -1470 -4749 -2361 -6694 -291 -635 -781
-1625 -828 -1672 -24 -25 -734 -101 -1247 -135 -247 -16 -944 -16 -1135 0
-351 29 -613 75 -823 143 -481 157 -670 420 -551 771 162 483 902 1137 2159
1910 362 223 924 544 1372 784 81 43 146 80 144 81 -6 7 -717 -308 -1168 -517
-363 -169 -1138 -554 -1428 -710 -1102 -594 -1852 -1104 -2336 -1585 -350
-349 -530 -652 -550 -929 -8 -107 13 -206 67 -316 58 -118 190 -249 339 -337
346 -203 815 -319 1545 -384 195 -17 980 -23 1261 -10 500 24 1033 74 1554
147 96 13 183 24 192 24 13 0 -24 -69 -144 -267 -1070 -1772 -2267 -3284
-3618 -4568 -267 -254 -711 -645 -975 -859 -137 -112 -140 -114 -85 -83 25 14
1999 1110 4388 2436 3885 2157 4346 2410 4365 2400 27 -15 8459 -4854 8507
-4883 23 -13 9 4 -40 49 -41 39 -147 137 -235 219 -396 370 -1175 1165 -1601
1636 -1482 1638 -2768 3476 -3823 5461 l-61 116 147 53 c1584 562 3149 1277
4373 1998 511 301 815 508 1239 845 334 265 700 613 871 827 402 504 464 895
187 1186 -125 133 -295 228 -556 314 -836 275 -2391 272 -4311 -9 -270 -40
-840 -134 -836 -139 2 -2 113 4 247 12 523 33 755 40 1329 40 589 1 744 -5
1100 -40 514 -49 905 -148 1137 -286 84 -49 185 -149 221 -216 117 -220 6
-499 -334 -837 -590 -587 -1836 -1323 -3698 -2182 -624 -288 -1512 -673 -1551
-673 -19 0 -326 667 -542 1180 -742 1759 -1331 3652 -1747 5615 -37 171 -70
325 -74 344 -6 29 -18 -7 -86 -260z m42 -5336 c55 -207 224 -699 340 -988 127
-318 295 -674 445 -945 47 -85 83 -158 79 -162 -8 -8 -336 -110 -604 -188
l-178 -52 -43 25 -44 26 -130 -75 -130 -75 -434 -108 c-484 -121 -529 -131
-512 -110 6 8 61 81 123 164 444 594 746 1198 926 1854 46 169 117 507 130
619 3 34 10 62 13 62 4 0 12 -21 19 -47z m1509 -3025 c54 -68 129 -159 167
-203 38 -44 79 -91 90 -104 12 -13 17 -22 11 -19 -52 27 -605 362 -605 367 0
4 53 23 118 43 64 20 118 36 119 37 1 0 46 -54 100 -121z"/>
<path d="M7305 4329 c-164 -17 -344 -87 -471 -183 -82 -61 -221 -209 -262
-279 -87 -146 -126 -281 -138 -477 l-7 -113 99 6 c241 14 455 116 631 300 179
187 250 355 260 615 5 135 5 142 -13 141 -11 -1 -55 -5 -99 -10z"/>
<path d="M14415 3384 c-262 -34 -449 -101 -623 -224 -196 -138 -318 -301 -379
-507 -16 -53 -18 -142 -21 -1012 l-3 -953 78 7 c94 9 223 45 301 84 198 100
384 321 464 551 49 142 50 158 57 695 7 562 4 542 70 598 63 53 45 52 906 52
852 0 827 1 898 -48 34 -23 62 -78 70 -134 11 -91 -59 -164 -188 -198 -33 -9
-136 -20 -230 -25 -296 -16 -507 -64 -715 -163 -262 -125 -411 -287 -436 -477
l-7 -51 749 5 c412 2 767 7 790 11 l40 7 17 -101 c33 -199 123 -381 261 -528
163 -173 331 -258 554 -279 l73 -7 -3 944 c-4 936 -4 945 -26 1024 -94 344
-412 607 -850 707 -95 21 -111 22 -957 24 -473 1 -873 0 -890 -2z"/>
<path d="M7335 3354 c-85 -10 -176 -29 -238 -50 -259 -88 -490 -305 -597 -561
-65 -156 -63 -126 -67 -1127 l-4 -909 83 6 c255 21 464 121 646 311 98 103
158 194 202 308 61 157 60 141 60 1128 l0 900 -27 -1 c-16 -1 -41 -4 -58 -5z"/>
<path d="M9720 3283 c-316 -30 -530 -82 -739 -179 -255 -119 -404 -270 -429
-436 l-9 -58 186 0 c102 0 238 5 301 11 593 54 1077 322 1107 613 l6 56 -194
-2 c-107 0 -210 -3 -229 -5z"/>
<path d="M10980 3283 c-298 -29 -543 -110 -746 -249 -201 -136 -318 -287 -365
-472 -18 -72 -19 -118 -19 -970 l0 -895 83 6 c256 20 494 136 670 327 134 144
215 319 237 506 5 49 10 276 10 504 0 472 -2 461 81 513 65 40 161 57 327 57
551 0 1097 168 1320 404 59 63 109 158 118 229 l7 47 -844 -2 c-464 0 -860 -3
-879 -5z"/>
</g>
</svg>
